HIERARCHY
ROOT SimulationBone
{
	OFFSET 0.000000 0.000000 0.000000
	CHANNELS 6 Xposition Yposition Zposition Zrotation Yrotation Xrotation 
	JOINT Hips
	{
		OFFSET 0.000000 0.000000 0.000000
		CHANNELS 6 Xposition Yposition Zposition Zrotation Yrotation Xrotation 
		JOINT RightUpLeg
		{
			OFFSET 0.103462 1.857844 10.548508
			CHANNELS 3 Zrotation Yrotation Xrotation
			JOINT RightLeg
			{
				OFFSET 43.500000 -0.000046 -0.000008
				CHANNELS 3 Zrotation Yrotation Xrotation
				JOINT RightFoot
				{
					OFFSET 42.372192 0.000000 0.000004
					CHANNELS 3 Zrotation Yrotation Xrotation
					JOINT RightToe
					{
						OFFSET 17.299997 -0.000003 0.000018
						CHANNELS 3 Zrotation Yrotation Xrotation
						End Site
						{
							OFFSET 0.000000 0.000000 0.000000
						}
					}
				}
			}
		}
		JOINT LeftUpLeg
		{
			OFFSET 0.103459 1.857830 -10.548515
			CHANNELS 3 Zrotation Yrotation Xrotation
			JOINT LeftLeg
			{
				OFFSET 43.500046 -0.000034 -0.000006
				CHANNELS 3 Zrotation Yrotation Xrotation
				JOINT LeftFoot
				{
					OFFSET 42.372253 0.000015 -0.000006
					CHANNELS 3 Zrotation Yrotation Xrotation
					JOINT LeftToe
					{
						OFFSET 17.299969 -0.000012 0.000010
						CHANNELS 3 Zrotation Yrotation Xrotation
						End Site
						{
							OFFSET 0.000000 0.000000 0.000000
						}
					}
				}
			}
		}
		JOINT Spine
		{
			OFFSET 6.901964 -2.603727 0.000001
			CHANNELS 3 Zrotation Yrotation Xrotation
			JOINT Spine1
			{
				OFFSET 12.588105 -0.000009 0.000006
				CHANNELS 3 Zrotation Yrotation Xrotation
				JOINT Spine2
				{
					OFFSET 12.343197 0.000007 -0.000002
					CHANNELS 3 Zrotation Yrotation Xrotation
					JOINT Neck
					{
						OFFSET 25.832897 0.000002 -0.000001
						CHANNELS 3 Zrotation Yrotation Xrotation
						JOINT Head
						{
							OFFSET 11.766611 0.000000 0.000004
							CHANNELS 3 Zrotation Yrotation Xrotation
							End Site
							{
								OFFSET 0.000000 0.000000 0.000000
							}
						}
					}
					JOINT RightShoulder
					{
						OFFSET 19.745911 -1.480377 6.000110
						CHANNELS 3 Zrotation Yrotation Xrotation
						JOINT RightArm
						{
							OFFSET 11.284108 -0.000006 -0.000027
							CHANNELS 3 Zrotation Yrotation Xrotation
							JOINT RightForeArm
							{
								OFFSET 33.000046 -0.000010 0.000031
								CHANNELS 3 Zrotation Yrotation Xrotation
								JOINT RightHand
								{
									OFFSET 25.200014 0.000009 0.000001
									CHANNELS 3 Zrotation Yrotation Xrotation
									End Site
									{
										OFFSET 0.000000 0.000000 0.000000
									}
								}
							}
						}
					}
					JOINT LeftShoulder
					{
						OFFSET 19.746105 -1.480358 -6.000092
						CHANNELS 3 Zrotation Yrotation Xrotation
						JOINT LeftArm
						{
							OFFSET 11.284138 -0.000011 -0.000001
							CHANNELS 3 Zrotation Yrotation Xrotation
							JOINT LeftForeArm
							{
								OFFSET 33.000088 0.000023 -0.000007
								CHANNELS 3 Zrotation Yrotation Xrotation
								JOINT LeftHand
								{
									OFFSET 25.199776 0.000128 0.000427
									CHANNELS 3 Zrotation Yrotation Xrotation
									End Site
									{
										OFFSET 0.000000 0.000000 0.000000
									}
								}
							}
						}
					}
				}
			}
		}
	}
}
MOTION
Frames: 5
Frame Time: 0.016667
-146.862904 0.000000 -145.328270 0.000000 102.975711 0.000000 0.839221 82.058777 -1.184502 93.268831 -4.438815 178.494008 147.132096 10.832902 -179.988216 -51.374660 1.424917 -4.614784 89.492717 3.206487 0.038083 21.454557 0.003102 0.000015 176.049779 11.814813 -165.556750 -90.337707 -3.390865 6.346437 75.015953 -2.942194 4.999404 21.454550 -0.003089 -0.000003 6.968425 -1.416831 1.391644 3.890850 -2.879021 2.736257 3.572707 -2.862583 2.753600 -3.439560 -3.049016 -4.066541 -23.021351 7.330348 -8.075993 -161.574653 -75.514813 -20.265711 30.111953 44.923355 47.314591 -81.252435 -5.433138 2.340471 -9.213742 -11.574713 17.809232 -162.619164 84.671767 19.134032 -9.093534 -61.877940 -20.402571 -101.035613 0.598678 -2.837603 -8.449137 9.903943 -19.859449 
-146.991306 0.000000 -148.687288 0.000000 102.626742 0.000000 0.719016 81.684186 -1.280040 93.056669 -5.093198 179.725118 148.035169 11.495143 179.396244 -53.787999 1.960969 -4.136800 92.664170 2.861103 0.172253 21.454557 0.003103 0.000016 171.763915 13.133243 -165.905435 -94.262412 -3.399687 6.706550 76.119888 -3.964352 2.372550 21.454560 -0.003095 -0.000004 7.063396 -1.569287 1.075853 4.086434 -3.175105 2.097018 3.768037 -3.162522 2.116163 -3.481786 -2.924349 -3.993472 -24.391546 7.817988 -8.301799 -166.440337 -73.922100 -15.289583 21.175163 45.323738 43.236649 -76.510896 -7.512589 2.303052 -9.491601 -14.055462 16.791437 -159.196347 82.914367 22.611771 -6.547905 -63.332102 -22.890465 -97.370126 1.233105 -2.666107 -9.993384 8.800006 -22.739081 
-147.079716 0.000000 -152.124728 0.000000 102.259233 0.000000 0.521511 81.509933 -1.318918 93.043275 -5.277753 -179.720681 149.665372 11.173201 178.739644 -55.380955 2.288552 -3.639420 95.815388 2.471223 0.068144 21.454558 0.003108 0.000017 167.313106 13.665408 -167.175423 -97.093856 -3.346466 7.016901 76.957947 -4.235220 2.176669 21.454555 -0.003092 -0.000005 7.193104 -1.620656 0.884923 4.350679 -3.273045 1.709567 4.032171 -3.262800 1.729310 -3.809070 -2.222873 -3.968421 -25.036963 7.694490 -8.103592 -169.881680 -73.524319 -11.756099 13.432095 46.729548 38.840283 -72.625510 -8.738392 2.202399 -9.078004 -14.683923 16.200483 -159.247060 81.858416 22.575939 -3.203081 -64.874221 -26.135340 -92.786568 2.436882 -2.599309 -8.932287 8.940509 -21.721783 
-147.131635 0.000000 -155.632927 0.000000 101.874527 0.000000 0.240632 81.563219 -1.326948 93.035764 -5.147092 -179.605097 151.784929 10.255494 178.155071 -56.115023 2.447949 -3.189920 98.659067 2.114911 -0.196568 21.454558 0.003113 0.000017 162.765112 13.510241 -168.866132 -98.639380 -3.250361 7.290540 77.503704 -4.196537 3.032980 21.454544 -0.003087 -0.000005 7.300774 -1.595703 0.745514 4.570412 -3.219284 1.428525 4.251874 -3.210737 1.447947 -4.233059 -1.304920 -3.890519 -25.180915 7.350102 -7.645421 -172.752243 -73.676233 -8.808929 6.618961 48.331675 34.140483 -70.023036 -9.302087 2.124596 -8.707488 -14.299469 16.188010 -160.061610 81.351833 21.757524 1.317571 -66.073834 -30.366381 -88.510861 3.669536 -2.517104 -6.992066 9.758657 -18.898181 
-147.150564 0.000000 -159.204222 0.000000 101.473974 0.000000 -0.130336 81.871246 -1.329639 92.829711 -4.850031 -179.688039 154.146071 9.115394 177.766711 -55.951184 2.477867 -2.864719 100.903702 1.858190 -0.534169 21.454558 0.003113 0.000017 158.193369 12.835906 -170.496193 -98.705576 -3.129012 7.544683 77.760070 -4.240815 3.546520 21.454541 -0.003088 -0.000003 7.330049 -1.519226 0.584139 4.634108 -3.060370 1.107859 4.315579 -3.053761 1.126327 -4.563366 -0.530016 -3.651170 -25.046437 7.167891 -7.102050 -175.168384 -73.709226 -6.328601 0.925732 49.373801 29.630753 -69.129839 -9.395864 2.104287 -9.076605 -13.747688 16.896778 -160.255879 81.235312 21.562008 7.092178 -66.466446 -35.514127 -85.793964 4.380219 -2.425937 -5.887490 10.765821 -16.368070 
